<?xml version="1.0" encoding="utf-8"?>
<!-- Generator: Adobe Illustrator 16.0.1, SVG Export Plug-In . SVG Version: 6.00 Build 0)  -->
<!DOCTYPE svg PUBLIC "-//W3C//DTD SVG 1.1//EN" "http://www.w3.org/Graphics/SVG/1.1/DTD/svg11.dtd">
<svg version="1.1" id="Layer_1" xmlns="http://www.w3.org/2000/svg" xmlns:xlink="http://www.w3.org/1999/xlink" x="0px" y="0px"
	 width="26px" height="30.025px" viewBox="0 0 26 30.025" enable-background="new 0 0 26 30.025" xml:space="preserve">
<path fill="#F33647" d="M13.7,6.477c-0.05-0.604-0.135-1.257-0.272-1.915c1.01,0.34,2.73,0.67,4.883,0.103
	C20.346,4.128,23.161,1.3,23.161,1.3s-2.549-1.415-5.971-0.513c-2.097,0.553-3.41,1.682-4.113,2.474
	C12.622,1.904,11.876,0.669,10.662,0L9.959,1.276c1.506,0.831,2.092,3.175,2.279,5.203C5.413,6.711,0,10.083,0,16.44
	c0,5.602,4.128,12.264,9.84,13.549C10.849,30.216,11.907,29.3,13,29.3c1.171,0,2.302,0.898,3.375,0.639
	C21.975,28.586,26,21.972,26,16.44C26,10.063,20.554,6.69,13.7,6.477z"/>
</svg>
