<?xml version="1.0" encoding="utf-8"?>
<!-- Generator: Adobe Illustrator 16.0.1, SVG Export Plug-In . SVG Version: 6.00 Build 0)  -->
<!DOCTYPE svg PUBLIC "-//W3C//DTD SVG 1.1//EN" "http://www.w3.org/Graphics/SVG/1.1/DTD/svg11.dtd">
<svg version="1.1" id="Layer_1" xmlns="http://www.w3.org/2000/svg" xmlns:xlink="http://www.w3.org/1999/xlink" x="0px" y="0px"
	 width="33px" height="38px" viewBox="0 0 33 38" enable-background="new 0 0 33 38" xml:space="preserve">
<path fill="#D3E1E0" d="M12.5,0c0.061,0,0.121,0,0.182,0c0.223,0.12,0.4,0.154,0.627,0.241c0.472,0.182,0.95,0.336,1.461,0.355
	c0.031,0.014,0.062,0.027,0.093,0.041c1.042,0.096,2.258,0.23,3.284-0.019c0.747-0.181,1.869-0.756,2.583-0.247
	c0.761,0.544,1.596,0.939,2.506,1.19c0.71,0.196,1.404,0.453,2.099,0.703c0.87,0.314,2.582,0.994,2.834,2.02
	c0.007,0.027,0.036,0.047,0.051,0.074c0.733,1.307,1.27,2.69,1.866,4.064c0.479,1.101,0.936,2.211,1.44,3.3
	c0.45,0.969,0.933,1.945,1.474,2.867c0,0.03,0,0.061,0,0.091c-0.025,0.014-0.066,0.021-0.073,0.042
	c-0.199,0.564-0.625,0.953-1.098,1.252c-0.846,0.536-1.731,1.009-2.606,1.499c-0.675,0.378-1.382,0.646-2.178,0.569
	c-0.045,0-0.09,0-0.136,0c-0.75-0.347-0.393-1.482-0.964-1.943c-0.028,0.066-0.081,0.133-0.08,0.198
	c0.018,0.955,0.045,1.911,0.066,2.865c0.086,3.83-0.008,7.66,0.067,11.49c0.024,1.266,0.048,2.531,0.098,3.796
	c0.023,0.593,0.104,1.184,0.168,1.774c0.021,0.187-0.014,0.326-0.157,0.466c-1.125,1.087-3.02,1.199-4.489,1.224
	c-0.312,0.005-0.624,0.057-0.937,0.087c-2.833,0-5.667,0-8.5,0c-0.059-0.031-0.116-0.086-0.177-0.089
	c-0.377-0.022-0.757-0.01-1.131-0.053c-0.641-0.075-1.292-0.13-1.914-0.29c-0.595-0.153-1.178-0.387-1.688-0.755
	c-0.249-0.18-0.411-0.374-0.336-0.741c0.096-0.469,0.144-0.957,0.133-1.436c-0.012-0.51-0.039-1.013,0.01-1.526
	c0.183-1.902,0.088-3.826,0.06-5.733c-0.029-1.961-0.057-3.92-0.044-5.881c0.009-1.316,0.029-2.633,0.045-3.949
	c0-0.053,0.012-0.105,0.014-0.158c0.004-0.164,0.139-1.306-0.045-1.346c-0.357-0.071-0.583,1.265-0.65,1.508
	c-0.153,0.555-0.722,0.561-1.196,0.473c-0.792-0.146-1.49-0.522-2.169-0.938C3.046,17.058,3,17.029,2.955,17
	c-0.076-0.031-0.157-0.055-0.228-0.095c-0.751-0.426-1.584-0.815-2.185-1.453C0.321,15.218,0.178,14.911,0,14.636
	c0-0.015,0-0.03,0-0.045c0.57-1.132,1.161-2.255,1.697-3.404c0.631-1.354,1.18-2.741,1.746-4.123
	c0.414-1.012,0.929-2.872,1.879-3.511c1.002-0.674,1.948-1.186,3.098-1.57c1.026-0.342,2.154-0.6,3.074-1.188
	C11.852,0.567,12.167,0.268,12.5,0C12.561,0,12.167,0.268,12.5,0z"/>
</svg>
