<?xml version="1.0" encoding="utf-8"?>
<!-- Generator: Adobe Illustrator 16.0.1, SVG Export Plug-In . SVG Version: 6.00 Build 0)  -->
<!DOCTYPE svg PUBLIC "-//W3C//DTD SVG 1.1//EN" "http://www.w3.org/Graphics/SVG/1.1/DTD/svg11.dtd">
<svg version="1.1" id="Layer_1" xmlns="http://www.w3.org/2000/svg" xmlns:xlink="http://www.w3.org/1999/xlink" x="0px" y="0px"
	 width="40px" height="29.438px" viewBox="0 0 40 29.438" enable-background="new 0 0 40 29.438" xml:space="preserve">
<path fill="#33B26A" d="M19.771,23.381c-0.324,0.082-0.644,0.172-0.97,0.254c0,3.319-3.534,3.162-5.426,1.405
	c0,2.216-1.855,5.491-4.483,4.058c-0.028,0.018-0.051,0.031-0.085,0.053c-0.6-0.778-1.028-1.225-1.113-2.283
	c-0.662,0.083-1.259-0.113-1.836-0.442c-0.464,1.093-1.138,2.142-2.334,2.538c-1.096,0.363-2.334-0.034-3.035-0.943
	c-1.641-2.13,1.031-5.225,3.306-5.102c0.11-1.024,0.54-1.861,1.45-2.431c-1.098-0.651-1.996-1.563-1.614-2.946
	c0.477-1.729,2.098-1.871,3.586-1.793c-0.777-0.766-1.106-1.785-0.669-2.79c0.633-1.471,1.872-1.454,3.254-1.417
	c0.21-1.297,1.042-2.631,2.28-3.13c-1.068-0.712-1.947-1.834-1.439-3.185C10.716,5.032,11,4.733,10.978,4.523
	c-0.034-0.266-0.055-0.533-0.017-0.8c0.017-0.124,0.244-1.06,0.355-1.062c0.151,0,0.402-0.42,0.53-0.509
	c0.247-0.172,0.539-0.291,0.826-0.376c0.77-0.23,1.467-0.089,2.186,0.22c0.55,0.237,1.138,0.168,1.719,0.303
	c0.571,0.133,0.996,0.439,1.476,0.749c0-1.76,1.004-3.354,2.984-2.987c1.675,0.31,2.124,2.555,1.745,3.917
	c0.81-0.442,1.265-1.27,2.223-1.476c1.319-0.283,2.379,0.499,3.28,1.373c0.702,0.681,1.958,0.458,2.777,1.157
	c0.749,0.639,0.866,1.408,0.866,2.297c0.746-0.379,1.572-0.846,2.392-1.034c0.963-0.222,1.974-0.128,2.936-0.371
	c0.627-0.158,1.413-0.441,2.057-0.222c0.341,0.117,0.743,1.209,0.692,1.489c-0.05,0.292-0.182,0.315-0.471,0.256
	c-0.312-0.053-0.416-0.479-0.72-0.521c-0.166,0.021-0.312,0.086-0.437,0.195c-0.277,0.182-0.562,0.157-0.874,0.217
	C36.71,7.492,36.045,7.727,35.32,8.03c-0.346,0.145-0.697-0.053-1.032,0.095c-0.421,0.185-0.749,0.281-1.213,0.354
	c-0.599,0.09-2.22,0.624-2.522,1.173c1.247,0.536,2.518,1.475,2.414,3.019c-0.121,1.806-1.863,2.46-3.441,2.322
	c0.662,1.084,1.837,3.546,0.447,4.472c0.045,0.009,0.069,0.015,0.116,0.023c-1.269,1.703-3.197,0.849-4.397-0.467
	c-0.994,1.684-2.833,1.671-4.33,0.618C21.81,21.32,21.227,22.564,19.771,23.381C19.744,23.388,19.799,23.365,19.771,23.381z"/>
</svg>
