<?xml version="1.0" encoding="utf-8"?>
<!-- Generator: Adobe Illustrator 16.0.1, SVG Export Plug-In . SVG Version: 6.00 Build 0)  -->
<!DOCTYPE svg PUBLIC "-//W3C//DTD SVG 1.1//EN" "http://www.w3.org/Graphics/SVG/1.1/DTD/svg11.dtd">
<svg version="1.1" id="Layer_1" xmlns="http://www.w3.org/2000/svg" xmlns:xlink="http://www.w3.org/1999/xlink" x="0px" y="0px"
	 width="32px" height="32px" viewBox="-2 0 35 35" enable-background="new 0 0 32 32" xml:space="preserve">
<g>
	<path fill="#FEE4D1" d="M16,31.5C7.453,31.5,0.5,24.547,0.5,16S7.453,0.5,16,0.5S31.5,7.453,31.5,16S24.547,31.5,16,31.5z"/>
	<path fill="#FF9B51" d="M16,1c8.271,0,15,6.729,15,15s-6.729,15-15,15S1,24.271,1,16S7.729,1,16,1 M16,0C7.164,0,0,7.164,0,16
		c0,8.837,7.164,16,16,16c8.837,0,16-7.163,16-16C32,7.164,24.837,0,16,0L16,0z"/>
</g>
<g>
</g>
<g>
</g>
<path fill="#FEC193" d="M16.5,28.783c3.063-0.117,5.937-1.307,8.186-3.39L16.5,17.207V28.783z"/>
<path fill="#FEC193" d="M25.393,7.314L17.207,15.5h11.576C28.666,12.437,27.476,9.563,25.393,7.314z"/>
<path fill="#FEC193" d="M28.783,16.5H17.207l8.186,8.186C27.476,22.437,28.666,19.563,28.783,16.5z"/>
<path fill="#FEC193" d="M16.5,3.217v11.576l8.186-8.186C22.437,4.524,19.563,3.334,16.5,3.217z"/>
<path fill="#FEC193" d="M15.5,17.207l-5.771,5.772l-2.414,2.414c2.249,2.083,5.122,3.273,8.185,3.39V17.207z"/>
<path fill="#FEC193" d="M6.608,24.686l2.414-2.414l5.771-5.772H3.217C3.334,19.563,4.524,22.437,6.608,24.686z"/>
<path fill="#FEC193" d="M15.5,3.217c-3.063,0.117-5.937,1.307-8.186,3.39l8.186,8.186V3.217z"/>
<path fill="#FEC193" d="M6.607,7.314c-2.083,2.249-3.273,5.123-3.39,8.186h11.576L6.607,7.314z"/>
</svg>
