<?xml version="1.0" encoding="utf-8"?>
<!-- Generator: Adobe Illustrator 16.0.1, SVG Export Plug-In . SVG Version: 6.00 Build 0)  -->
<!DOCTYPE svg PUBLIC "-//W3C//DTD SVG 1.1//EN" "http://www.w3.org/Graphics/SVG/1.1/DTD/svg11.dtd">
<svg version="1.1" id="Layer_1" xmlns="http://www.w3.org/2000/svg" xmlns:xlink="http://www.w3.org/1999/xlink" x="0px" y="0px"
	 width="38px" height="18.657px" viewBox="0 0 38 18.657" enable-background="new 0 0 38 18.657" xml:space="preserve">
<path fill="#E9695B" d="M2.21,10.699c0,0,0.034,0.722-0.022,1.535c-0.057,0.812-0.181,1.377-0.282,1.851
	c-0.102,0.474-0.361,1.591-0.429,2.099s-0.135,1.456-0.079,1.568c0.057,0.113,0.226,0.102,0.293,0.181
	c0.068,0.079,0.245,0.064,0.515,0.053c0.271-0.012,0.647-0.09,0.647-0.09S2.65,17.774,2.65,17.143s0.249-1.016,0.395-1.512
	c0.147-0.497,0.271-1.489,0.271-1.489s0.214,0.778,0.316,1.185s0.474,1.918,0.587,2.325s0.248,0.959,0.383,0.961
	c0.136,0.002,0.373-0.047,0.373-0.047s0.192,0.067,0.508,0.09c0.316,0.022,0.722-0.169,0.722-0.169S6.059,18.147,5.957,18
	c-0.102-0.146-0.531-0.981-0.745-1.986s0.226-1.884,0.508-2.663c0.282-0.778,0.7-2.11,0.7-2.11s0.429,0.226,1.173,0.395
	c0.745,0.169,1.061,0.293,1.546,0.429c0.485,0.135,0.925,0.226,1.603,0.316c0.677,0.09,1.241,0.146,1.489,0.316
	c0.249,0.169,0.768,0.305,1.174,0.293c0.406-0.012,0.7,0.158,1.106,0.158c0.406,0,0.609-0.338,1.004-0.373
	c0.395-0.034,1.377-0.191,2.009-0.18s1.771-0.192,2.2-0.293c0.429-0.102,2.313,0,2.313,0s-0.011,0.609,0.091,1.049
	s0.439,1.591,0.561,2.099c0.12,0.507,0.004,2.076,0.004,2.076s-0.057,0.237,0.281,0.282c0.339,0.045,0.644-0.034,1.023-0.056
	s0.5-0.124,0.5-0.124s0-0.057-0.226-0.361S24.045,16.59,24,16.014s0.305-1.941,0.305-1.941s1.016,1.704,1.264,2.099
	c0.248,0.395,0.418,0.926,0.451,1.208c0.034,0.282,0.305,0.497,0.463,0.643c0.158,0.147,0.564,0.057,0.564,0.057
	s0.417,0.079,0.688,0.079c0.271,0,0.425-0.083,0.425-0.083s-0.782-1.204-1.083-2.046c-0.302-0.843,0-3.46,0-3.46
	s1.173-0.06,1.564-0.09c0.391-0.03,0.872-0.15,1.083-0.09s0.843,0,1.174,0.06c0.331,0.061,0.782-0.03,0.782-0.03
	s0.361,0.12,0.481,0.09c0.12-0.03,1.023,0.21,1.534,0.21c0.512,0,1.775-0.542,2.167-0.572c0.391-0.03,0.963-0.12,1.174-0.15
	c0.21-0.03,0.571-0.181,0.632-0.361c0.06-0.18,0.331-1.384,0.331-1.384c-0.557-0.019-2.208-1.166-2.886-1.73
	c-0.677-0.564-0.654-1.219-0.733-1.591c-0.079-0.373,0.621-0.812,1.196-1.117s1.072-0.677,1.298-1.095s0.022-1.264,0.022-1.264
	s-0.305,0.26-0.451,0.463c-0.146,0.203-0.474,0.575-0.474,0.575s0.022-0.316-0.079-0.632s-0.305-0.508-0.305-0.508
	s-0.429,0.045-0.632,0.214s-0.463,0.361-0.858,0.654c-0.395,0.293-1.004,0.553-1.004,0.553s-0.699-0.361-1.286-0.655
	c-0.587-0.293-1.715-0.925-2.551-1.196c-0.835-0.271-0.406-0.271-2.741-0.937c-2.336-0.666-5.202-0.711-7.989-0.745
	C15.74,1.209,15.131,0.916,13.1,0.623C11.068,0.33,8.304-0.133,6.532,0.036C4.761,0.205,2.481,1.785,2.481,1.785
	s0.045-0.429-0.249-0.869c-0.293-0.44-0.857-0.451-1.23-0.226c-0.372,0.226-0.44,0.937-0.191,1.433
	C1.06,2.62,1.658,2.801,1.658,2.801S0.812,3.658,0.382,4.482c-0.429,0.824-0.429,1.591-0.327,2.719S2.21,10.699,2.21,10.699z
	 M1.892,1.939c0,0-0.214-0.005-0.414-0.229C1.279,1.485,1.54,1.245,1.734,1.48C1.928,1.715,1.892,1.939,1.892,1.939z"/>
</svg>
