<?xml version="1.0" encoding="utf-8"?>
<!-- Generator: Adobe Illustrator 16.0.1, SVG Export Plug-In . SVG Version: 6.00 Build 0)  -->
<!DOCTYPE svg PUBLIC "-//W3C//DTD SVG 1.1//EN" "http://www.w3.org/Graphics/SVG/1.1/DTD/svg11.dtd">
<svg version="1.1" id="Layer_1" xmlns="http://www.w3.org/2000/svg" xmlns:xlink="http://www.w3.org/1999/xlink" x="0px" y="0px"
	 width="36px" height="27.583px" viewBox="0 0 36 27.583" enable-background="new 0 0 36 27.583" xml:space="preserve">
<path opacity="0.95" fill="#EDE2C4" enable-background="new    " d="M36,4.969V4.04L35.239,3.84l-9.477,5.391
	c-0.351-0.232-0.644-0.407-1.037-0.552l7.52-7.721l-0.091-0.685L30.882,0L23.04,8.351c-1.146-0.175-2.29-0.368-3.434-0.561
	c-0.405-0.304-0.809-0.531-1.257-0.77c-1.124-0.062-2.012-0.044-3.117,0.156c-0.902,0.163-1.872-0.431-2.804-0.119
	c-0.51,0.17-1.017,0.343-1.524,0.521C10.422,7.748,9.942,7.704,9.43,7.711C8.414,7.727,7.423,7.916,6.411,7.951
	c0,0.149,0,0.299,0,0.448H6.333v0.096L6.255,8.527v0.064L6.176,8.656v0.031L6.097,8.719v0.097L6.019,8.847v0.032L5.626,9.329
	C4.548,9.438,3.609,9.672,2.563,9.969l-0.235,0.448l0.079,0.513l-0.183,0.139L0,11.106v0.102h0.084v0.102l0.084,0.102v0.204
	l0.084,0.102v0.102l0.084,0.102v0.203l0.168,0.204v0.102l0.084,0.203v0.203c0.077,0.179,0.174,0.33,0.252,0.509v0.102l0.084,0.103
	v0.203l0.084,0.102v0.102l0.084,0.102v0.102l0.084,0.103v0.102l0.084,0.102v0.203l0.168,0.203v0.204l0.084,0.102v0.203l0.168,0.203
	v0.204c0.079,0.087,0.136,0.19,0.168,0.305v0.102c0.225,0.31,0.436,0.665,0.588,1.018v0.102c0.27,0.369,0.479,1.142,0.924,1.322
	v0.102l0.168,0.102v0.204l0.168,0.102v0.102c0.172,0.07,0.295,0.226,0.336,0.407l0.168,0.102c0.304,0.646,0.894,1.184,1.344,1.729
	H5.63c0.491,0.593,1.205,1.066,1.786,1.566c0.693,0.597,1.386,1.193,2.079,1.79v1.424h0.169l0.084,0.102h0.084l0.168,0.103h0.084
	l0.168,0.102h0.168l0.168,0.102h0.252l0.084,0.102h0.336l0.168,0.102h0.084l0.084,0.102h0.337l0.168,0.103h0.336l0.084,0.102h0.42
	l0.084,0.102h0.168l0.168,0.102h0.673l0.084,0.102h1.008l0.084,0.102h0.841l0.084-0.102h0.924l0.168-0.102h0.42l0.084-0.102h0.252
	l0.169-0.102h0.42l0.084-0.102h0.084l0.168-0.103h0.336l0.084-0.102h0.168l0.084-0.102h0.168l0.168-0.102h0.169l0.168-0.102h0.168
	l0.084-0.102h0.168l0.084-0.103h0.084l0.084-0.102h0.168l-0.168-1.729l0.084-0.102h0.168l0.168-0.103h0.168l0.084-0.102h0.168
	c0.085-0.132,0.197-0.234,0.336-0.305h0.084c0.158-0.078,0.309-0.171,0.421-0.306h0.084l0.084-0.102h0.084l0.252-0.305h0.084
	c0.084-0.133,0.196-0.235,0.336-0.306h0.084c0.378-0.317,1.402-0.93,1.513-1.424c0.151-0.096,0.269-0.209,0.42-0.305
	c0.093-0.321,0.411-0.493,0.504-0.813c0.53-0.215,0.864-1.25,1.219-1.679c0.346-0.418,0.666-1.077,0.882-1.576v-0.102
	c0.097-0.133,0.156-0.275,0.252-0.407v-0.102c0.08-0.088,0.137-0.19,0.168-0.306v-0.102l0.169-0.203v-0.102l0.084-0.102v-0.103
	c0.077-0.178,0.174-0.329,0.252-0.508h0.084v-0.204h0.084l1.176-4.271l-2.927,0.049l-0.627-0.604L36,4.969z"/>
</svg>
