<?xml version="1.0" encoding="utf-8"?>
<!-- Generator: Adobe Illustrator 15.1.0, SVG Export Plug-In . SVG Version: 6.00 Build 0)  -->
<!DOCTYPE svg PUBLIC "-//W3C//DTD SVG 1.1//EN" "http://www.w3.org/Graphics/SVG/1.1/DTD/svg11.dtd">
<svg version="1.1" id="Layer_1" xmlns="http://www.w3.org/2000/svg" xmlns:xlink="http://www.w3.org/1999/xlink" x="0px" y="0px"
	 width="567.361px" height="492.237px" viewBox="0 0 567.361 492.237" enable-background="new 0 0 567.361 492.237"
	 xml:space="preserve">
<g>
	<defs>
		<path id="SVGID_1_" d="M100.723,261.574C100.618,261.832,100.635,262.088,100.723,261.574 M163.434,326.861
			c0.082-0.021,0.171-0.036,0.253-0.057c-0.044,0.06-0.088,0.118-0.131,0.178c-0.047-0.012-0.095-0.023-0.143-0.035
			C163.42,326.918,163.427,326.89,163.434,326.861 M163.991,326.399c-0.034,0.113-0.036,0.277-0.113,0.332
			c-0.054,0.037-0.121,0.057-0.191,0.073C163.789,326.67,163.89,326.534,163.991,326.399 M107.07,2.793
			c-1.714,0.605-3.011,2.694-5.189,1.915c0.646-1.437,1.207-2.685,1.768-3.932c-1.883,0.861-3.403,1.861-4.478,3.214
			c-1.059,1.335-1.67,3.028-2.55,4.698c-1.451-0.192-3.004-0.433-4.564-0.585c-0.436-0.043-1.112,0.016-1.315,0.294
			c-1.905,2.607-5.574,1.811-7.724,4.012c-0.244,0.249-1.5-0.491-1.958-0.654c-1.252,2.424-2.747,4.701-3.591,7.198
			c-0.47,1.391-0.838,2.36-2.254,2.871c-0.912,0.33-1.82,0.807-2.575,1.412c-2.692,2.157-5.317,4.397-8.133,6.743
			c0.031,0.183,0.05,0.687,0.201,1.146c0.206,0.623,0.637,1.189,0.757,1.82c0.407,2.145-0.832,3.484-2.789,2.719
			c-0.087-0.034-0.174,0.02-0.26,0.114c-1.32-0.187-2.958-0.019-4.749,0.148c-2.616,0.245-5.558,0.489-8.306-0.373
			c-5.821-1.822-12.549-4.999-20.766-1.221C20.377,38.111,7.239,45.091,4.717,46.325c-2.523,1.234-5.952,4.752-4.27,6.761
			c1.682,2.009,10.987,11.029,17.539,13.672c6.554,2.642,13.478,5.066,20.347,5.273c5.693,0.172,13.206-4.148,21.581-5.163
			c-0.42,2.479-1.326,4.534-2.826,6.383c-0.549,0.678-0.482,1.885-0.621,2.863c-0.279,1.953-0.657,3.91-0.717,5.875
			c-0.077,2.567-1.039,5.335,1.401,7.508c0.376,0.336,0.216,1.246,0.363,1.877c0.997,4.298,1.031,8.786,2.682,12.97
			c0.374,0.949,0.054,2.173,0.054,3.327c0.198,0.109,0.49,0.259,0.773,0.429c3.421,2.06,3.391,2.056,2.674,6.193
			c-0.134,0.771-0.189,1.732,0.153,2.376c1.017,1.917,2.307,3.69,3.375,5.583c0.542,0.96,0.921,2.036,1.22,3.102
			c0.395,1.414,0.72,2.859,0.93,4.311c0.384,2.656,0.661,5.328,1.018,8.284c2.087-0.277,2.989,1.135,3.541,3.397
			c0.808,3.316,2.039,6.529,3.175,10.056c-1.951,3.421-2.242,7.621-0.425,11.259c1.71,3.428,0.775,7.563,3.428,10.596
			c0.247,0.284-0.182,1.169-0.309,1.771c-0.444,2.104-1.057,4.108-2.367,5.9c-1.328,1.813-2.053,3.778-0.377,5.9
			c0.364,0.462,0.427,1.243,0.445,1.883c0.188,6.352,0.971,8.445,4.275,12.902c1.145,1.546,2.479,3.418,2.564,5.197
			c0.232,4.875-0.155,9.782-0.3,14.811c4.747,1.518,6.541,5.775,7.274,10.403c0.381,2.415,1.436,4.366,2.391,6.442
			c0.68,1.48,1.424,2.969,2.384,4.275c2.175,2.961,1.878,6.843,4.271,9.877c3.043,3.86,2.674,4.145,0.381,8.905
			c-0.002-0.01-0.003-0.019-0.007-0.028c-0.004,0.032-0.008,0.052-0.014,0.079c0.008-0.016,0.013-0.034,0.021-0.051
			c0.803,3.095,1.395,5.286,1.936,7.488c0.707,2.875,1.599,5.653,3.284,8.146c2.067,3.059,2.849,6.698,2.676,10.164
			c-0.134,2.69,0.541,3.791,2.755,4.973c3.007,1.605,6.95,2.425,7.41,6.92c0.045,0.442,0.991,0.786,1.512,1.184
			c1.287,0.978,2.575,1.951,3.85,2.943c2.314,1.804,4.105,4.401,7.423,4.667c0.54,0.044,1.353,0.607,1.489,1.086
			c0.567,1.993,2.246,2.137,3.79,2.697c1.834,0.666,3.776,1.312,5.32,2.445c2.958,2.17,6.901,1.917,9.737,4.259
			c0.205,0.169,0.779,0.221,0.934,0.07c1.349-1.307,2.934-1.147,4.536-0.989c1.332,0.133,2.675,0.264,3.905-0.445
			c1.383-0.798,2.994,0.491,3.094,2.178c0.055,0.937-0.227,1.952-0.582,2.842c-0.584,1.46-1.352,2.847-2.094,4.372
			c0.798,0.198,1.262,0.314,1.694,0.424c-0.469,1.996-0.94,3.995-1.526,6.489c6.693,0.583,3.903,5.652,4.086,9.353
			c0.996,0,1.664,0.1,2.293-0.018c1.986-0.371,2.521,1.002,3.181,2.403c0.653,1.384-1.597,2.85,0.461,4.42
			c0.721,0.551-0.031,3.03-0.111,4.644c1.5,0.085,2.797,0.423,2.334,2.255c-1.483,5.871,0.527,11.001,3.023,16.029
			c4.213-0.504,2.933,1.44,2.853,3.598c-0.167,4.5-0.228,8.842-0.667,13.916c-0.208,2.407,0.476,14.228,1.415,17.569
			c0.826,2.944,1.103,5.832,0.103,8.792c-0.842,2.494-1.519,5.046-2.365,7.539c-0.909,2.681-0.791,5.373-0.546,8.063
			c-1.188,7.991-1.31,18.122-3.519,19.823c-2.596,2.001-4.261,7.196-7.528,16.278c-1.462,4.063,3.689,2.865,4.094,4.063
			c0.13,0.388-1.378,4.435,1.585,4.729c11.092,1.098,17.769,2.549,25.647-2.392c5.347-3.354,5.395-1.65,5.395-4.714
			c0.002-4.19-2.267-29.021-3.06-37.576c0.004-0.026,0.002-0.054,0.006-0.08c0.598-4.905,0.98-9.84,1.676-14.73
			c1.021-7.192,2.222-14.359,3.384-21.531c0.291-1.788,0.605-3.588,1.124-5.318c0.851-2.841,1.997-5.575,1.936-8.651
			c-0.015-0.851,0.868-1.72,1.521-2.911c2.116,3.297,2.353,6.354,2.27,9.543c-0.207,8.136,0.133,16.192,2.785,24.04
			c1.096,3.248,1.491,6.737,2.167,10.123c0.094,0.472,0.092,1.044-0.09,1.475c-1.312,3.135-0.944,6.354-0.661,9.546
			c-1.228,9.338-0.321,23.576-2.698,25.902c-2.475,2.423-7.546,8.763-9.546,19.405c-0.792,4.211,2.485,3.911,4.941,3.611
			c1.164-0.143,2.143-0.284,2.419,0.054c0.858,1.049,0.753,5.296,3.722,5.512c9.952,0.723,15.524,0.555,23.131-4.636
			c2.11-1.439,5.317,0.056,5.529-5.661c0.204-5.506-5.267-42.447-5.672-45.166c0.004-0.813,0.011-1.627,0.005-2.439
			c-0.014-2.103-0.556-4.2-0.823-6.305c-0.103-0.822-0.226-1.67-0.138-2.485c0.4-3.759,0.865-7.514,1.32-11.268
			c0.199-1.636,0.337-3.287,0.672-4.896c0.603-2.884,1.53-5.711,1.975-8.614c1.071-7.013,3.765-13.64,4.518-20.769
			c0.314-2.98,3.429-5.087,6.144-6.709c0.982-0.586,2.05-0.745,2.301-2.222c0.33-1.949,0.253-4.178,2.46-5.351
			c0.319-0.169,0.387-0.877,0.503-1.35c1.022-4.126,2.001-8.263,3.066-12.376c0.187-0.721,0.689-1.369,1.095-2.019
			c0.333-0.534,1.07-1.03,1.059-1.528c-0.075-3.044,0.09-6.177-0.58-9.11c-1.295-5.675,1.598-9.085,7.309-7.875
			c1.74,0.368,3.273,0.539,4.718-0.578c1.491-1.151,2.909-1.081,4.626-0.327c1.623,0.716,3.446,1.09,5.221,1.335
			c3.471,0.478,6.723,0.197,8.224-3.999c5.628,0.848,10.447-0.095,13.068-5.951c1.206,0.386,2.308,0.672,3.358,1.09
			c1.397,0.557,2.612,0.851,4.261,0.361c1.934-0.574,4.281-0.755,6.188-0.202c3.126,0.909,6.216,0.748,9.348,0.854
			c1.104,0.037,2.19,0.54,3.466,0.88c0.644-0.595,1.371-1.257,2.087-1.925c1.433-1.336,3.078-1.504,4.497-0.253
			c1.667,1.472,3.081,1.088,4.988,0.436c5.831-1.996,11.878-0.869,17.843-0.638c0.683,0.026,1.335,0.843,2.195,1.424
			c0.677-0.904,1.162-2.095,2.035-2.57c0.936-0.512,2.233-0.432,3.376-0.464c2.958-0.082,5.917-0.084,9.801-0.128
			c3.193,2.995,8.014,3.877,13.263,3.261c1.302-0.153,2.802-0.437,3.919,0.034c1.98,0.835,3.48-0.109,5.066-0.717
			c2.388,1.786,4.344,3.952,7.903,3.073c1.475-0.363,3.365,0.958,5.021,1.497c0.525-0.833,0.136-2.589,1.728-1.876
			c3.447,1.543,6.268-0.06,9.517-1.381c2.932,3.425,2.806,7.844,2.957,12.197c0.027,0.783-0.111,1.755,0.285,2.316
			c3.392,4.82,4.404,10.188,4.171,15.965c-0.258,6.424,2.561,12.187,4.321,18.155c0.368,1.245,2.049,2.045,2.828,3.242
			c0.807,1.241,3.131,1.76,2.083,3.974c1.172,0.931,2.267,1.986,3.533,2.762c1.668,1.019,3.483,1.793,5.211,2.717
			c1.913,1.024,4.612,1.061,5.247,4.157c-1.8,0.737-3.518,1.442-5.956,2.444c1.974,1.362,3.45,2.329,4.864,3.379
			c0.708,0.524,1.745,1.128,1.855,1.821c0.203,1.281-0.655,2.13-2.106,2.167c-0.477,0.012-0.948,0.213-2.206,0.515
			c2.158,0.293,3.551,0.482,5.237,0.711c-1.494,1.992-4.522,2.572-4.427,5.522c0.073,2.249-1.472,4.126-0.941,6.683
			c0.463,2.235-0.736,4.778-0.995,7.207c-0.418,3.933-0.269,7.967-1.104,11.797c-0.735,3.373-3.169,6.263-3.535,9.833h1.433
			c-1.564,8.372-4.21,21.38-6.375,26.265c-3.3,7.448-10.756,16.377-9.478,17.677c1.277,1.299,17.867,2.447,27.57-0.026
			c9.704-2.474,7.676-9.736,14.343-16.141c6.11-5.868,6.271-18.621,9.548-27.774h1.383c1.813-3.884,3.609-7.777,5.451-11.647
			c1.696-3.564,3.552-7.052,5.178-10.646c2.711-5.997,5.283-12.057,7.936-18.082c1.021-2.322,1.466-4.685,1.211-7.258
			c-0.239-2.424-0.378-4.922,0.921-7.48c2.986,2.789,5.669,5.234,8.271,7.765c0.669,0.649,1.589,1.6,1.532,2.348
			c-0.457,6.16,3.039,11.97,1.567,18.197c-0.066,0.282,0.091,0.682,0.263,0.949c2.989,4.654,1.622,10.371,3.727,15.26
			c0.5,1.161,0.475,2.573,0.575,3.878c0.116,1.491,0.211,2.984,0.311,4.478l-0.358-0.008c0,0,2.709,23.882,2.723,28.513
			c0.014,4.632-10.98,23.205-7.483,25.918c3.497,2.714,22.683,2.84,29.423-2.558c6.741-5.396,1.556-17.992,6.481-23.36
			s2.074-18.365,0.5-27.866c0.768-4.129,2.604-8.379,2.104-12.339c-0.59-4.657,0.044-9.08,0.149-13.607
			c0.036-1.567-0.854-3.001,0.061-4.749c0.798-1.527,1.005-3.478,1.068-5.256c0.157-4.328,0.113-8.664,0.075-12.997
			c-0.013-1.31,0.082-2.806-0.488-3.893c-1.414-2.697-0.843-5.028,0.534-7.455c0.953-1.681,1.729-3.461,2.584-5.197
			c-3.844-3.957-3.844-3.957-3.133-8.192c-2.218-0.933-3.715-2.492-3.542-5.258c0.148-2.398,0.031-4.813,0.031-7.17
			c-2.425-1.306-4.831-2.191-4.235-5.519c0.149-0.832-1.152-1.896-1.722-2.889c-1.021-1.789-2.971-3.365-1.233-5.817
			c0.236-0.334-0.109-1.326-0.468-1.797c-3.617-4.737-6.445-10.154-11.515-13.65c-2.326-1.604-3.543-3.942-4.397-6.478
			c-0.679-2.008-1.306-4.083-1.544-6.177c-0.254-2.234-0.095-4.528,0.01-6.792c0.093-1.983,0.118-3.988,2.683-4.766
			c0.653-0.198,1.333-1.539,1.353-2.368c0.061-2.675,1.843-3.74,3.859-4.648c1.037-0.469,2.161-0.745,3.227-1.155
			c3.699-1.428,3.16-6.376,6.702-8.081c0.746-0.359,1.202-2.025,1.208-3.091c0.012-3.388,1.983-5.893,3.716-8.403
			c1.094-1.587,3.066-2.493,1.764-4.994c-0.282-0.542,0.498-2.327,1.117-2.528c2.195-0.714,2.339-2.456,2.919-4.188
			c0.33-0.985,1.459-1.677,2.124-2.577c1.549-2.1,3.035-4.245,4.546-6.371c-0.891-3.425,1.757-7.163-1.377-10.498
			c1.696-0.894,3.091-1.63,4.558-2.404c-0.462-2.01-0.864-3.761-1.271-5.519c0.956-0.832,2.203-1.427,2.548-2.356
			c0.339-0.912-0.303-2.159-0.394-3.268c-0.055-0.647,0.203-1.315,0.191-1.973c-0.079-5.051,1.331-10.083-0.384-15.17
			c-1.258-3.73-1.738-7.715-2.815-11.516c-0.672-2.372-1.987-4.558-2.688-6.923c-0.865-2.911-0.063-6.402-3.151-8.51
			c-0.188-0.129-0.138-0.625-0.181-0.952c-0.66-5.066-1.371-10.103-4.646-14.34c-0.295-0.38,0.073-1.223,0.017-1.841
			c-0.268-2.903-0.223-5.77-2.965-7.942c-3.128-2.478-6.856-4.348-8.49-8.56c-0.541-1.394-2.872-2.1-4.396-3.104
			c-1.623-1.07-3.139-2.062-4.116-3.994c-1.675-3.305-3.222-3.609-7.263-2.729c-1.772,0.386-3.739,0.743-5.235-1.482
			c1.487-0.217,2.601-0.378,4.641-0.675c-3.347-0.612-6.421-0.277-7.882-1.654c-2.153-2.027-4.744-1.225-6.833-2.429
			c-0.549-0.318-1.546-0.654-1.552-0.995c-0.039-2.392-1.826-2.254-3.34-2.458c-4.77-0.645-9.346-1.838-13.82-3.721
			c-3.474-1.461-7.198-2.497-10.911-3.176c-6.178-1.127-12.428-1.866-18.659-2.676c-7.552-0.983-14.995-2.954-22.709-2.497
			c-1.323,0.078-2.661-0.13-3.994-0.173c-9.807-0.313-19.619-0.916-29.42-0.798c-4.782,0.058-9.708,0.364-14.032,3.553
			c-1.77,1.306-4.862,1.637-7.15,1.238c-3.979-0.692-7.519,0.238-11.21,1.24c-3.788,1.028-7.574,2.693-11.641,1.053
			c-0.434-0.174-1.078-0.229-1.475-0.034c-3.612,1.782-7.153-0.151-10.723-0.185c-1.624-0.015-3.241-0.77-4.867-0.793
			c-8.489-0.125-16.982-0.219-25.473-0.104c-2.562,0.034-5.114,0.772-8.262,1.282c-1.664-1.248-4.246-1.451-6.986-1.326
			c-2.649,0.12-5.32-0.004-7.971-0.201c-5.166-0.383-9.778-3.704-15.215-2.891c-0.686,0.101-1.509-0.555-2.238-0.922
			c-1.484-0.747-2.922-1.596-4.43-2.291c-1.74-0.803-3.504-1.059-5.149,0.309c-2.065,1.714-4.399,1.167-6.632,0.605
			c-6.276-1.584-12.456-3.735-19.105-2.792c-0.406,0.057-1.082-0.204-1.281-0.53c-1.166-1.914-3.043-1.467-4.472-0.999
			c-3.442,1.127-6.698,0.52-10.035-0.267c-3.407-0.804-6.847-1.433-10.064,0.089c-1.541-1.081-2.797-2.647-4.212-2.808
			c-2.849-0.32-5.487-1.033-8.167-1.972c-1.293-0.454-2.927,0.029-4.402,0.14c-1.288,0.098-2.58,0.441-3.854,0.372
			c-2.457-0.132-4.926-0.82-7.347-0.651c-3.272,0.229-5.919-0.331-7.658-3.375c0.677-4.793-0.232-9.37-2.804-13.48
			c-1.212-1.936-0.454-3.219,0.208-4.37c0.611-1.063,0.956-0.75,0.42-2.719c-1.883,0.697-2.355,1.639-2.924,1.647
			c-0.568,0.008-2.448-1.386-2.484-1.603c-0.037-0.218,1.867-2.294,1.872-2.644c0.005-0.35-4.103-1.621-4.142-2.128
			c-0.041-0.508,2.01-3.52,2.014-3.889c0.004-0.368-2.238-2.156-2.606-3.322c-0.687-2.173-2.184-3.127-4.086-3.899
			c-0.162-0.065-0.321-0.135-0.48-0.205c0.463-0.399,0.974-0.738,1.539-0.963c3.159-1.266,4.104,1.03,6.456,1.826
			c2.352,0.797,7.788-1.995,9.819-2.062c0.999-0.031,1.521,0.372,2.275,0.776c0.782,0.419,1.812,0.837,3.883,0.769
			c4.066-0.13,15.36-1.657,20.493-4.733c5.135-3.072,13.784-14.401,14.326-15.582c0.544-1.182-5.153-6.522-10.495-9.839
			c-5.341-3.316-15.648-7.346-23.82-8.244c-8.17-0.901-17.287,4.919-22.498,5.669c-3.587,0.517-7.768-0.327-10.024-0.902
			c-1.419-0.8-2.622-2.019-3.597-3.679c-0.405-0.691-1.062-1.754-1.601-1.753c-2.009,0.004-2.159-1.742-3.113-2.75
			c-3.035-3.208-5.622-7.073-10.554-7.691c-2.463-2.883-5.63-4.698-9.083-6.133c-0.521-0.217-0.875-0.993-1.158-1.582
			c-0.406-0.843-0.678-1.751-1.127-2.954c-2.466,0.935-5.039,1.15-6.642-0.588c-1.798-1.953-4.143-2.536-6.195-2.544
			c-1.985-0.007-2.126-2.047-3.874-2.054C110.497,0.896,108.891,2.151,107.07,2.793"/>
	</defs>
	<use xlink:href="#SVGID_1_"  overflow="visible" fill="#2D80C1"/>
	<clipPath id="SVGID_2_">
		<use xlink:href="#SVGID_1_"  overflow="visible"/>
	</clipPath>
	<rect x="-20.494" y="-14.547" display="none" clip-path="url(#SVGID_2_)" fill="#2D80C1" width="640" height="540"/>
	<path display="none" clip-path="url(#SVGID_2_)" fill="#2D80C1" d="M357.006,239.453c0,170.38-121.555,308.5-271.5,308.5
		c-149.945,0-271.5-138.12-271.5-308.5s121.555-308.5,271.5-308.5C235.451-69.047,357.006,69.073,357.006,239.453"/>
</g>
</svg>
