<?xml version="1.0" encoding="utf-8"?>
<!-- Generator: Adobe Illustrator 16.0.1, SVG Export Plug-In . SVG Version: 6.00 Build 0)  -->
<!DOCTYPE svg PUBLIC "-//W3C//DTD SVG 1.1//EN" "http://www.w3.org/Graphics/SVG/1.1/DTD/svg11.dtd">
<svg version="1.1" id="Layer_1" xmlns="http://www.w3.org/2000/svg" xmlns:xlink="http://www.w3.org/1999/xlink" x="0px" y="0px"
	 width="30px" height="27.727px" viewBox="-2.5 -2.5 30 27.727" enable-background="new 0 0 30 27.727" xml:space="preserve">
<path fill="#F33647" d="M18.112,4.567c-0.445-0.172-1.288-0.304-2.315-0.396l1.723-2.656l-3.598,2.226L14.962,0L12.69,3.646V1.089
	L11.79,3.835L10.607,0l0.284,3.693L6.819,1.231l2.719,2.845c-0.082,0.005-0.162,0.01-0.241,0.016L7.15,3.03l0.995,1.179
	C7.872,4.25,7.65,4.296,7.49,4.35C3.081,5.831,0,9.208,0,13.138c0,5.296,5.597,9.589,12.5,9.589S25,18.434,25,13.138
	C25,9.39,22.198,6.144,18.112,4.567z"/>
</svg>
