<?xml version="1.0" encoding="utf-8"?>
<!-- Generator: Adobe Illustrator 16.0.1, SVG Export Plug-In . SVG Version: 6.00 Build 0)  -->
<!DOCTYPE svg PUBLIC "-//W3C//DTD SVG 1.1//EN" "http://www.w3.org/Graphics/SVG/1.1/DTD/svg11.dtd">
<svg version="1.1" id="Layer_1" xmlns="http://www.w3.org/2000/svg" xmlns:xlink="http://www.w3.org/1999/xlink" x="0px" y="0px"
	 width="22px" height="25.657px" viewBox="0 0 22 25.657" enable-background="new 0 0 22 25.657" xml:space="preserve">
<path fill="#ECE0C1" d="M20.541,20.479l0.173-0.037l0.203-0.043c0.029-0.006,0.053-0.012,0.072-0.018l-0.017-0.265
	c-0.022-0.358-0.045-0.716-0.075-1.073c-0.122-1.461-0.407-2.881-0.709-4.385l-0.089-0.446c-0.223-1.116-0.434-2.233-0.645-3.352
	c-0.201-1.066-0.402-2.133-0.614-3.197c-0.096-0.483-0.243-1.002-0.452-1.588c-0.161-0.455-0.455-0.784-0.898-1.007
	c-0.416-0.212-0.596-0.636-0.628-0.963c-0.019-0.195-0.034-0.388-0.049-0.581c-0.022-0.281-0.044-0.562-0.077-0.842
	c-0.01-0.086-0.044-0.203-0.222-0.367c-0.492-0.453-1.02-0.791-1.616-1.031c-0.052-0.021-0.103-0.046-0.154-0.074l-0.285-0.08
	l-0.291-0.083c-0.139-0.005-0.277-0.012-0.416-0.019C13.464,1.014,13.177,1,12.89,1c-0.068,0-0.136,0-0.204,0.002
	c-1.74,0.048-3.783,0.162-5.735,0.638c-1.7,0.414-3.129,1.022-4.371,1.861C2.102,3.824,1.81,4.123,1.632,4.469
	c-0.03,0.058-0.057,0.115-0.084,0.172L1.539,4.659L1.348,5.336L1.33,5.501c-0.02,0.18-0.041,0.36-0.053,0.541
	C1.243,6.516,1.36,6.885,1.645,7.204c0.056,0.062,0.109,0.133,0.152,0.191l0.438,0.603L1.81,8.627
	C1.735,8.725,1.661,8.82,1.586,8.915C1.445,9.095,1.306,9.27,1.181,9.456c-0.154,0.23-0.208,0.445-0.169,0.678l0.063,0.381
	c0.092,0.557,0.179,1.083,0.307,1.595c1.05,4.22,2.081,7.93,3.152,11.342c0.032,0.102,0.068,0.202,0.104,0.302
	c0.031,0.088,0.062,0.177,0.092,0.266c0.116,0.35,0.238,0.509,0.35,0.598l0.061,0.017l0.071,0.02
	c0.573-0.02,1.132-0.178,1.723-0.344c0.165-0.046,0.33-0.093,0.495-0.137c2.397-0.634,4.947-1.329,7.455-2.23
	C16.744,21.274,18.621,20.869,20.541,20.479z"/>
<path fill="#CAAD6F" d="M12.89,1c0.287,0,0.574,0.014,0.861,0.027c0.139,0.007,0.277,0.013,0.416,0.019l0.291,0.083l0.285,0.08
	c0.051,0.028,0.102,0.053,0.154,0.074c0.596,0.241,1.125,0.578,1.616,1.031c0.178,0.164,0.212,0.281,0.222,0.367
	c0.033,0.28,0.055,0.561,0.077,0.842c0.015,0.193,0.031,0.386,0.049,0.581c0.032,0.327,0.213,0.751,0.628,0.963
	c0.443,0.223,0.737,0.553,0.898,1.007c0.208,0.586,0.356,1.105,0.452,1.588c0.212,1.064,0.413,2.13,0.614,3.197
	c0.211,1.118,0.421,2.236,0.645,3.352l0.089,0.446c0.302,1.503,0.587,2.923,0.709,4.385c0.03,0.357,0.053,0.715,0.075,1.073
	l0.017,0.265c-0.019,0.006-0.042,0.012-0.072,0.018l-0.203,0.043l-0.173,0.037c-1.92,0.39-3.797,0.795-5.657,1.464
	c-2.508,0.902-5.058,1.596-7.455,2.23c-0.165,0.044-0.33,0.09-0.495,0.137c-0.59,0.167-1.15,0.325-1.723,0.344l-0.071-0.02
	L5.08,24.618c-0.112-0.089-0.234-0.248-0.35-0.598c-0.029-0.089-0.061-0.177-0.092-0.266c-0.036-0.1-0.072-0.201-0.104-0.302
	C3.463,20.04,2.432,16.33,1.382,12.11c-0.127-0.512-0.214-1.038-0.307-1.595l-0.063-0.381C0.973,9.901,1.027,9.686,1.181,9.456
	C1.306,9.27,1.445,9.095,1.586,8.915C1.661,8.82,1.735,8.725,1.81,8.627l0.425-0.629L1.796,7.395
	C1.754,7.336,1.701,7.266,1.645,7.204C1.36,6.885,1.243,6.516,1.276,6.042C1.289,5.861,1.31,5.681,1.33,5.501l0.018-0.165
	l0.191-0.677l0.009-0.018c0.027-0.057,0.055-0.115,0.084-0.172c0.178-0.346,0.47-0.645,0.949-0.968
	c1.241-0.838,2.671-1.447,4.371-1.861c1.952-0.477,3.995-0.59,5.735-0.638C12.754,1,12.822,1,12.89,1 M12.89,0
	c-0.077,0-0.154,0.001-0.231,0.003c-2,0.055-3.997,0.19-5.945,0.666C5.045,1.076,3.456,1.704,2.021,2.672
	C1.5,3.024,1.036,3.44,0.742,4.013C0.693,4.108,0.647,4.207,0.6,4.304c-0.079,0.28-0.158,0.561-0.237,0.841
	C0.334,5.42,0.298,5.695,0.279,5.972C0.228,6.687,0.414,7.327,0.898,7.87c0.048,0.053,0.088,0.113,0.117,0.151
	C0.786,8.321,0.552,8.599,0.351,8.898C0.068,9.32-0.059,9.793,0.026,10.3c0.116,0.686,0.218,1.377,0.386,2.052
	c0.952,3.829,1.986,7.635,3.168,11.4c0.062,0.196,0.136,0.389,0.201,0.584c0.164,0.495,0.41,0.93,0.878,1.202
	c0.14,0.04,0.28,0.079,0.42,0.119c0.016,0,0.032,0,0.047,0c0.887,0,1.718-0.293,2.56-0.517c2.536-0.671,5.068-1.368,7.537-2.256
	c1.8-0.647,3.654-1.047,5.518-1.425c0.125-0.025,0.249-0.055,0.373-0.08c0.327-0.065,0.606-0.204,0.788-0.499
	c0.033-0.117,0.065-0.233,0.099-0.35c-0.035-0.524-0.063-1.048-0.107-1.571c-0.14-1.669-0.487-3.304-0.814-4.943
	c-0.436-2.18-0.824-4.368-1.258-6.548c-0.116-0.586-0.29-1.165-0.49-1.728c-0.248-0.699-0.719-1.227-1.391-1.565
	c-0.045-0.023-0.077-0.108-0.083-0.168c-0.046-0.481-0.071-0.965-0.129-1.445c-0.046-0.393-0.244-0.713-0.537-0.983
	c-0.567-0.523-1.204-0.934-1.919-1.223c-0.05-0.02-0.095-0.051-0.143-0.076c-0.269-0.076-0.537-0.152-0.806-0.228
	C13.846,0.036,13.368,0,12.89,0L12.89,0z"/>
</svg>
