<?xml version="1.0" encoding="utf-8"?>
<!-- Generator: Adobe Illustrator 16.0.1, SVG Export Plug-In . SVG Version: 6.00 Build 0)  -->
<!DOCTYPE svg PUBLIC "-//W3C//DTD SVG 1.1//EN" "http://www.w3.org/Graphics/SVG/1.1/DTD/svg11.dtd">
<svg version="1.1" id="Layer_1" xmlns="http://www.w3.org/2000/svg" xmlns:xlink="http://www.w3.org/1999/xlink" x="0px" y="0px"
	 width="15px" height="34.228px" viewBox="0 0 15 34.228" enable-background="new 0 0 15 34.228" xml:space="preserve">
<g>
	<title>Layer 1</title>
	<g id="layer1">
		<path id="path3454" fill="#1AAB45" d="M7.737,34.171c-2.487-0.001,2.014-0.001-0.474,0c-2.487,0.003-6.023,0.125-6.148,0
			c1.021-0.651,2.793-1.101,3.551-1.548c0.759-0.446,1.905-1.104,2.203-1.365l0.034-0.921c0.008-0.215-0.165-2.262-0.214-4.572
			l-0.089-4.2l-2.556-2.498C-0.381,14.74-0.984,10.978,1.31,2.004L1.84,0h5.356h0.608h5.355l0.53,2.004
			c2.294,8.974,1.69,12.736-2.735,17.063l-2.556,2.498l-0.089,4.2c-0.049,2.311-0.222,4.357-0.214,4.572l0.034,0.921
			c0.298,0.262,1.444,0.919,2.203,1.365c0.759,0.447,2.53,0.896,3.551,1.548C13.761,34.296,10.224,34.174,7.737,34.171z"/>
	</g>
</g>
</svg>
