<?xml version="1.0" encoding="utf-8"?>
<!-- Generator: Adobe Illustrator 16.0.1, SVG Export Plug-In . SVG Version: 6.00 Build 0)  -->
<!DOCTYPE svg PUBLIC "-//W3C//DTD SVG 1.1//EN" "http://www.w3.org/Graphics/SVG/1.1/DTD/svg11.dtd">
<svg version="1.1" id="Layer_1" xmlns="http://www.w3.org/2000/svg" xmlns:xlink="http://www.w3.org/1999/xlink" x="0px" y="0px"
	 width="313px" height="469.5px" viewBox="0 0 313 469.5" enable-background="new 0 0 313 469.5" xml:space="preserve">
<path opacity="0.07" fill="#FFFFFF" d="M156.5,0C156.5,0,0,226.561,0,313c0,86.434,70.061,156.5,156.5,156.5
	c86.434,0,156.5-70.066,156.5-156.5C313,226.561,156.5,0,156.5,0z M202.947,362.162c-7.898,7.787-19.413,12.609-34.544,14.463
	v21.472h-23.029v-20.805c-16.243-0.74-31.893-4.375-46.948-10.902v-36.936c8.603,4.377,17.948,8.029,28.036,10.958
	c10.085,2.931,18.949,4.395,26.589,4.395c6.304,0,10.92-0.76,13.852-2.28c2.929-1.52,4.394-4.061,4.394-7.621
	c0-2.447-1.057-4.523-3.17-6.23c-2.114-1.705-5.638-3.633-10.569-5.784c-4.933-2.15-11.589-4.746-19.97-7.788
	c-9.42-3.485-17.021-7.398-22.807-11.737s-9.995-9.195-12.627-14.574c-2.634-5.376-3.949-12.07-3.949-20.08
	c0-12.238,3.93-21.806,11.792-28.703c7.861-6.898,19.653-11.162,35.378-12.794v-15.241h23.029v15.019
	c14.759,0.817,29.63,4.45,44.612,10.902l-13.239,31.707c-15.502-6.971-29.481-10.458-41.941-10.458
	c-5.935,0-10.106,0.724-12.516,2.17c-2.411,1.446-3.616,3.579-3.616,6.396c0,2.448,0.871,4.47,2.615,6.063
	c1.742,1.596,4.765,3.376,9.067,5.34c4.301,1.966,10.271,4.247,17.911,6.842c15.501,5.49,26.626,11.737,33.376,18.746
	c6.748,7.009,10.124,16.04,10.124,27.09C214.796,344.251,210.847,354.374,202.947,362.162z"/>
</svg>
