<?xml version="1.0" encoding="utf-8"?>
<!-- Generator: Adobe Illustrator 16.0.1, SVG Export Plug-In . SVG Version: 6.00 Build 0)  -->
<!DOCTYPE svg PUBLIC "-//W3C//DTD SVG 1.1//EN" "http://www.w3.org/Graphics/SVG/1.1/DTD/svg11.dtd">
<svg version="1.1" id="Layer_3" xmlns="http://www.w3.org/2000/svg" xmlns:xlink="http://www.w3.org/1999/xlink" x="0px" y="0px"
	 width="213px" height="182.31px" viewBox="0 0 213 182.31" enable-background="new 0 0 213 182.31" xml:space="preserve">
<g id="frx_2_">
	<path id="path2182_1_" fill="#1AAB45" d="M0.493,56.579c1.983-0.931,4.355-1.521,6.542-1.114c0.75-3.353-3.698-1.044-4.631-3.351
		c2.049-0.673,4.432-0.424,6.551-0.316c-1.658-0.287-3.904,0.307-2.711-1.755c-1.29-0.068-5.639,2.39-6.167,0.242
		c-0.714-2.937,3.748-4.706,5.867-5.122c2.86-0.574,5.568-0.8,8.462-0.721c4.103,0.111,6.739-3.87,11.285-3.321
		c-0.52,1.468,4.947,6.612,6.47,5.991c1.028-0.497,2.022-1.073,2.966-1.706c2.079-1.159,1.941,0.339,3.671,0.667
		c1.712,0.33,3.027-1.019,3.133,1.744c1.121-0.772-0.526-1.688,0.391-2.941c0.954-1.272,1.423,0.662,2.246,0.881
		c1.968,0.513,4.478-0.009,6.441-0.33c-4.168-1.222-2.648-7.127-2.297-10.202c0.167-1.493-2.11-2.998-2.869-4.046
		c-1.329-1.796-0.102-4.529-2-5.998c1.435,0.253,2.758,0.965,4.2,1.258c1.577,0.332,3.508-1.213,4.893-0.515
		c2.144,1.08-0.533,4.326,2.433,6.03c0.872,0.49,2.419-0.384,3.296-0.396c2.591-0.02,5.076,0.856,7.602,1.331
		c2.449,0.465,4.6,0.4,6.8-0.863c1.993-1.139,4.669-1.098,6.47-2.376c-1.435,0.564-3.859,0.854-5.252,0.054
		c-2.82-1.618,3.68-5.598,4.771-6.077c3.422-1.539,7.302-1.355,10.785-2.747c2.024-0.813,4.714-5.433,7.225-4.139
		c-2.201-1.414-0.852-11.21,0.976-13.042c1.785-1.803,10.932-5.062,13.288-3.082c1.197,1.012-1.154,4.889,2.354,5.759
		c3.615,0.89,2.758,0.081,5.329,0.847c2.383,0.721,1.633,2.56,3.484,3.452c2.399,1.168,4.836-0.217,4.534,3.511
		c1.435-0.928,3.92-0.709,5.452-0.188c2.853,0.983,1.658,4.516,1.068,6.565c1.927,0.321,4.093,0.913,6,0.151
		c1.887-0.754,2.311-2.905,4.214-3.66c0.167,1.182-0.335,6.49,1.278,6.547c2.372,0.086,7.139,3.212,7.88,5.487
		c-0.224-0.657,9.005,0.836,9.481,0.876c2.245,0.192,3.915-0.273,5.69,1.584c1.39,1.459,2.384,3.752,4.512,4.312
		c0.452-0.221,0.827-0.542,1.091-0.974c0.685-0.709,1.035,0.233,1.756,0.332c0.42,0.156,0.515,0.432,0.334,0.836
		c-0.122,0.865,1.896,0.393,2.246,0.42c2.261,0.206,3.556-1.186,5.663,0.409c2.232,1.699,6.832,2.013,9.619,2.478
		c-3.418,3.023-6.581,6.337-7.681,10.824c-0.545,2.187-1.842,4.193-2.176,6.391c-0.239,1.439,0.249,2.024-0.32,3.87
		c-0.701,2.237,0.998,4.101-0.502,5.476c-1.271,1.175-2.25,2.3-4.144,2.133c-1.602-0.14-1.728-2.508-3.655-1.439
		c-1.394,0.775-1.522,3.239,0.796,2.869c-1.739,1.827-3.276,4.003-5.269,5.575c-1.211,0.798-2.412,1.626-3.569,2.503
		c-0.962,0.858-0.867,2.55-1.674,3.558c-1.378,1.712-4.056,2.517-4.471,4.94c0.318,0.827,0.521,1.676,0.637,2.546
		c-0.318,1.568-1.789,2.128-2.383,3.506c2.632-0.328,3.596-1.229,4.29-3.743c0.684-2.472,5.25-2.282,7.084-1.765
		c2.221,0.624,0.71,4.263,2.327,6.037c2.79,3.081,1.075,4.24-1.45,6.323c1.344,1.897,6.389,5.411,4.995,8.196
		c-0.934,1.864-7.89,4.423-7.876,4.742c0.129,2.205,4.362,4.075,5.826,5.332c2.121,1.814-2.945,5.049-2.204,7.45
		c0.876,2.91,6.454,6.213,9.402,5.034c3.695-1.482,3.146,0.671,1.737,3.133c-3.355,5.933-9.801,8.93-15.546,12.807
		c0.364,0.542,0.739,1.078,1.13,1.595c-2.146,0.307-3.948,1.41-5.952,2.11c-2.16,0.764-3.545-0.429-5.578-0.273
		c-3.093,0.247-5.006-2.338-8.702-1.992c1.481-3.838-4.861-0.897-4.934-3.125c0.406-0.689,1.03-0.872,1.897-0.544
		c-0.072-1.261-0.822-1.963-2.081-1.909c1.06,1.623,0.138,1.862-1.308,1.932c-2.399,0.122-2.666-0.02-3.321-2.892
		c0.868,5.718-0.599,2.074-4.294,2.074c-2.135,0-3.89-1.349-5.968-1.453c-2.566-0.125-5.366,2.763-7.639,3.8
		c-1.773,0.815-8.006,3.124-7.615,5.539c-0.041,0.786-0.278,1.523-0.705,2.201c-1.01,0.885-0.928,1.676,0.244,2.363
		c0.881,2.774,0.31,4.164,1.911,6.834c-1.52,0.436-2.844-0.332-4.351-0.242c-1.561,0.095-2.356,1.344-3.748,1.721
		c-3.362,0.917-5.409-2.566-8.63-0.217c-0.237,0.165-4.715-1.932-5.203-2.291c-1.251-0.94,1.618-0.818-0.404-2.162
		c-1.172-0.789-3.275-1.125-4.265,0.163c-0.46-2.86-3.61-1.663-5.329-3.021c-2.368-1.871-7.223-3.065-6.47,1.426
		c-2.647-0.382-5.63-1.053-8.307-0.561c-1.48,0.273-2.485,0.691-3.752-0.452c-2.246-2.02-2.079-1.188-4.36-1.22
		c-2.262-0.032-13.221-7.216-14.337-4.302c-2.078-0.852-0.599-2.356-0.472-3.811c0.149-1.724-4.853-0.935-5.917-2.246
		c6.333-2.34,6.877-11.115,8.031-16.824c0.447-2.239,0.868-5.768,2.725-7.367c2.702-2.327-0.924-2.655-1.186-0.032
		c-0.382-5.393,0.709-11.996,3.036-16.896c2.237,1.265,4.462,2.756,5.422,5.264c0.212,1.114,0.425,2.232,0.637,3.346
		c0.524,1.419,1.943,1.618,1.902,3.344c0.639-2.223-1.618-3.94-1.826-6.052c-0.318-3.247-1.45-5.442-4.335-7.023
		c-1.197-0.655-2.555-1.562-3.56-2.526c-1.626-1.575,2.636-0.791,3.504-0.014c-2.008-0.974-2.119-9.502-0.947-11.153
		c-2.639,1.846-8.855-1.792-10.083-4.243c-1.075-2.162-3.513-3.289-4.014-5.819c-0.447-2.307,3.791-4.837-1.532-5.072
		c0.624-0.741,0.75-2.083,1.561-2.641c2.024-1.412,3.89,0.965,5.786,1.204c-3.377-2.232-4.715-1.495-8.246-1.035
		c-1.78,0.237-5.223-2.385-1.952-2.788c-0.917-0.904-0.542-1.489,1.107-1.755c-2.512-0.624-6.082,1.423-8.115-0.795
		c1.111-0.021,2.171-0.283,3.174-0.8c-1.993-1.333-5.684-0.793-6.217,1.916c-0.07-1.771-2.033-3.429-0.156-4.94
		c-0.762,1.938-4.25,1.812-2.074-0.635c-4.417,3.831-10.335-4.889-14.806-0.163C5.083,58.738,3.576,57.222,0.493,56.579"/>
	<path id="path2184_1_" fill="#1AAB45" d="M197.956,162.877c0.908-0.919,1.091-2.781,2.317-3.396
		c2.425-1.218,5.188-1.539,7.489-3.07c2.059-1.367,0.607-5.232,3.402-5.013c0.346,4.864,2.673,11.867,1.516,16.575
		c-1.211,4.965-3.655,9.712-5.811,14.336c-0.826-1.312-8.646-4.163-4.466-5.892c-1.127-0.267-2.191-0.691-3.19-1.274
		c1.101-0.691,1.88-1.846,1.754-3.186c-2.23,0.52-2.551-1.968-1.268-3.19c-1.896-0.474-3.093-2.966-0.486-3.504
		C198.671,164.528,198.25,163.733,197.956,162.877"/>
</g>
</svg>
