<?xml version="1.0" encoding="UTF-8"?>
<!DOCTYPE svg PUBLIC "-//W3C//DTD SVG 1.1//EN" "http://www.w3.org/Graphics/SVG/1.1/DTD/svg11.dtd">
<svg version="1.1" xmlns="http://www.w3.org/2000/svg" xmlns:xlink="http://www.w3.org/1999/xlink" x="0px" y="0px" width="100%" height="100%" viewBox="0, 0, 256, 256">
  <g id="Layer 2">
    <path d="M200.28,111.44 C169.507,111.44 144.56,86.493 144.56,55.72 C144.56,24.947 169.507,0 200.28,-0 C231.053,-0 256,24.947 256,55.72 C256,86.493 231.053,111.44 200.28,111.44 z" fill="#4D4D4D"/>
    <path d="M55.72,193.332 C24.947,193.332 -0,168.385 -0,137.612 C-0,106.839 24.947,81.892 55.72,81.892 C86.493,81.892 111.44,106.839 111.44,137.612 C111.44,168.385 86.493,193.332 55.72,193.332 z" fill="#4D4D4D"/>
    <path d="M200.28,256 C169.507,256 144.56,231.053 144.56,200.28 C144.56,169.507 169.507,144.56 200.28,144.56 C231.053,144.56 256,169.507 256,200.28 C256,231.053 231.053,256 200.28,256 z" fill="#4D4D4D"/>
    <g>
      <path d="M86.69,150.169 L169.403,191.923" fill="#EAEAEA"/>
      <path d="M86.69,150.169 L169.403,191.923" fill-opacity="0" stroke="#4D4D4D" stroke-width="22"/>
    </g>
    <g>
      <path d="M85.141,115.473 L172.225,65.845" fill="#EAEAEA"/>
      <path d="M85.141,115.473 L172.225,65.845" fill-opacity="0" stroke="#4D4D4D" stroke-width="22"/>
    </g>
  </g>
  <defs/>
</svg>
